<svg width="100" height="59" viewBox="0 0 100 59" fill="none" xmlns="http://www.w3.org/2000/svg">
<g clip-path="url(#clip0_322_2694)">
<path d="M1.9541 1.26416H18.3909V4.71244H5.7472V13.3331H18.0461V16.7814H5.7472V28.3906H18.3909V31.8389H1.9541V1.26416Z" fill="white"/>
<path d="M39.8848 7.01149C38.7354 5.17241 37.3561 4.13793 35.0572 4.13793C32.5285 4.13793 29.8848 5.86206 29.8848 8.50574C29.8848 10.9195 32.1837 12.1839 34.1377 12.8736L36.3216 13.7931C40.6894 15.5172 43.9078 17.8161 43.9078 22.9885C43.9078 28.5057 39.6549 32.5287 34.1377 32.5287C29.1952 32.5287 25.2871 28.8506 24.7124 23.908L28.5055 23.1034C28.5055 26.5517 31.1492 28.9655 34.4825 28.9655C37.8159 28.9655 40.1147 26.2069 40.1147 22.9885C40.1147 19.6552 37.471 18.2759 34.8273 17.1264L32.7584 16.3218C29.1952 14.8276 26.0917 12.7586 26.0917 8.50574C26.0917 3.56321 30.4595 0.574707 35.0572 0.574707C38.5055 0.574707 41.2641 2.29884 42.9883 5.17241L39.8848 7.01149Z" fill="white"/>
<path d="M88.0462 31.8389H84.2531V4.71244H77.0117V1.26416H95.2876V4.71244H88.0462V31.8389Z" fill="white"/>
<path d="M62.8737 9.1955L53.7932 31.8392H49.6553L62.8737 -0.344727L76.207 31.8392H72.0691L62.8737 9.1955Z" fill="white"/>
<path d="M38.5672 38.5059V56.8967H36.4121L26.3905 42.457H26.2109V56.8967H23.9839V38.5059H26.1391L36.1965 52.9814H36.3761V38.5059H38.5672Z" fill="white"/>
<path d="M43.0235 56.8967V38.5059H45.2505V54.9211H53.7994V56.8967H43.0235Z" fill="white"/>
<path d="M59.4746 38.5059V56.8967H57.2476V38.5059H59.4746Z" fill="white"/>
<path d="M78.5232 38.5059V56.8967H76.368L66.3465 42.457H66.1669V56.8967H63.9399V38.5059H66.0951L76.1525 52.9814H76.3321V38.5059H78.5232Z" fill="white"/>
<path d="M82.9795 56.8967V38.5059H94.0786V40.4814H85.2065V46.6955H93.5039V48.6711H85.2065V54.9211H94.2223V56.8967H82.9795Z" fill="white"/>
<path d="M10.4597 49.0805C9.77003 49.0805 9.19531 48.5058 9.19531 47.8161V38.3908C9.19531 37.7012 9.77003 37.1265 10.4597 37.1265C11.2643 37.1265 11.839 37.7012 11.839 38.3908V47.8161C11.839 48.5058 11.2643 49.0805 10.4597 49.0805Z" fill="white"/>
<path d="M10.5748 58.3908C7.81619 58.3908 5.17251 57.3563 3.21849 55.4023C1.26446 53.4483 0.22998 50.9196 0.22998 48.046C0.22998 45.2874 1.26446 42.7586 3.21849 40.8046C3.75488 40.2682 4.40623 39.7701 5.17251 39.3104C5.74722 38.9655 6.55182 39.0805 6.89665 39.7701C7.24147 40.3448 7.12653 41.1494 6.43688 41.4943C5.97711 41.8008 5.51734 42.1839 5.05757 42.6437C3.56331 44.1379 2.75872 45.977 2.75872 48.046C2.75872 50.2299 3.56331 52.069 5.05757 53.5632C6.55182 55.0575 8.50584 55.8621 10.5748 55.8621C12.6438 55.8621 14.5978 55.0575 16.092 53.5632C17.4714 52.069 18.276 50.2299 18.276 48.046C18.276 45.977 17.4714 44.1379 16.092 42.6437C15.6323 42.1839 15.1342 41.8008 14.5978 41.4943C14.0231 41.1494 13.9081 40.3448 14.253 39.7701C14.5978 39.0805 15.4024 38.9655 15.9771 39.3104C16.6668 39.7701 17.3181 40.2682 17.9311 40.8046C19.8852 42.7586 20.9196 45.2874 20.9196 48.046C20.9196 50.9196 19.8852 53.4483 17.9311 55.4023C15.9771 57.3563 13.3334 58.3908 10.5748 58.3908Z" fill="white"/>
</g>
<defs>
<clipPath id="clip0_322_2694">
<rect width="100" height="58.6207" fill="white"/>
</clipPath>
</defs>
</svg>
